
<svg xmlns="http://www.w3.org/2000/svg" fill="none" viewBox="0 0 128 128"><g id="thermometer-alert__thermometer-alert" clip-path="url(#thermometer-alert__clip0_1938_11744)"><g id="thermometer-alert__Thermometer Mercury"><circle id="thermometer-alert__Reservoir" cx="64" cy="83" r="9" fill="#dc2626"/><rect id="thermometer-alert__Value" width="6" height="29" x="61" y="50" fill="#dc2626" rx="3"><animateTransform attributeName="transform" begin="0s" calcMode="spline" dur="3s" keySplines=".42 0 .58 1; .42 0 .58 1" repeatCount="indefinite" type="translate" values="0 0;0 -2;0 0"/></rect></g><g id="thermometer-alert__Thermometer Glass"><path id="thermometer-alert__Glass" fill="url(#thermometer-alert__paint0_linear_1938_11744)" stroke="#bfdbfe" stroke-linecap="round" stroke-linejoin="round" d="M50.5 83.191a13.05 13.05 0 0 1 1.523-6.14 13.5 13.5 0 0 1 4.261-4.776.5.5 0 0 0 .216-.41V38.778c0-1.926.786-3.776 2.191-5.142A7.62 7.62 0 0 1 64 31.5c1.994 0 3.903.77 5.309 2.137a7.17 7.17 0 0 1 2.191 5.142v3.268H65a.5.5 0 0 0 0 1h6.5v6.78H65a.5.5 0 1 0 0 1h6.5v6.778H65a.5.5 0 0 0 0 1h6.5V71.84a.5.5 0 0 0 .216.411 13.5 13.5 0 0 1 4.266 4.787A13.05 13.05 0 0 1 77.5 83.19v.002C77.5 90.543 71.48 96.5 64 96.5s-13.5-5.957-13.5-13.308z"/><g id="thermometer-alert__Alert"><path id="thermometer-alert__Exclamation" fill="url(#thermometer-alert__paint1_linear_1938_11744)" stroke="#202939" d="M91.835 48.75c.962-1.667 3.368-1.667 4.33 0l12.124 21c.962 1.667-.24 3.75-2.165 3.75H81.876c-1.865 0-3.052-1.955-2.249-3.593l.084-.157z"/><path id="thermometer-alert__ExclamationMark" fill="#fff" d="M94.758 64.59h-1.494l-.846-5.022v-3.384h3.168v3.384zm.846 4.41H92.4v-3.006h3.204z"/><animate attributeName="opacity" begin="0s" dur="1s" keyTimes="0;0.294;0.5;0.794;1" repeatCount="indefinite" values="1;1;0;0;1"/></g></g></g><defs><linearGradient id="thermometer-alert__paint0_linear_1938_11744" x1="64" x2="64" y1="31" y2="97.121" gradientUnits="userSpaceOnUse"><stop stop-color="#dbeafe" stop-opacity=".25"/><stop offset="1" stop-color="#bfdbfe" stop-opacity=".25"/></linearGradient><linearGradient id="thermometer-alert__paint1_linear_1938_11744" x1="94" x2="94" y1="47" y2="74" gradientUnits="userSpaceOnUse"><stop stop-color="#364d6e"/><stop offset="1" stop-color="#202939"/></linearGradient><clipPath id="thermometer-alert__clip0_1938_11744"><rect width="128" height="128" fill="#fff"/></clipPath></defs></svg>
