
<svg xmlns="http://www.w3.org/2000/svg" fill="none" viewBox="0 0 128 128"><g id="umbrella-wind-alt__umbrella-wind-alt" clip-path="url(#umbrella-wind-alt__clip0_1843_12131)"><g id="umbrella-wind-alt__Umbrella" clip-path="url(#umbrella-wind-alt__clip1_1843_12131)"><path id="umbrella-wind-alt__Umbrella Stick" stroke="#71717a" stroke-linecap="round" stroke-linejoin="round" stroke-width="3" d="M38.148 77.125c-1.824 1.823-2.881 4.81-.665 7.028 2.217 2.216 5.205 1.159 7.029-.664l42.115-42.116"/><g id="umbrella-wind-alt__Umbrella Top"><path id="umbrella-wind-alt__Vector" fill="url(#umbrella-wind-alt__paint0_linear_1843_12131)" stroke="#f1f5f9" d="M71.992 56.55a44.427 44.427 0 0 0 9.93.03c5.863-.663 12.66-2.77 16.872-8.447q-.281-.653-.546-1.319a1.63 1.63 0 0 0-.936-.916c-7.329-2.805-12.44-7.975-15.21-15.21a1.63 1.63 0 0 0-.916-.936 51 51 0 0 1-1.322-.545c-5.675 4.213-7.782 11.01-8.445 16.872a44.4 44.4 0 0 0 .03 9.929q.036.286.063.48.194.027.48.062Z"/><path id="umbrella-wind-alt__Vector_2" fill="url(#umbrella-wind-alt__paint1_linear_1843_12131)" stroke="#dc2626" d="M70.39 55.507a45.424 45.424 0 0 1 .036-9.54c.657-5.82 2.73-12.748 8.394-17.222-5.63-2.58-10.534-6.298-13.027-12.598l-.415-1.04c-.414-1.037-1.67-1.204-2.26-.407-7.765 10.468-4.934 27.831 7.271 40.807Zm2.102 2.103c12.976 12.206 30.34 15.038 40.808 7.272.797-.59.63-1.846-.407-2.26l-1.04-.415-.006-.002c-6.204-2.569-9.969-7.364-12.589-13.032-4.474 5.668-11.402 7.743-17.223 8.4a45.4 45.4 0 0 1-7.789.183 42 42 0 0 1-1.754-.146Z"/></g><animateTransform attributeName="transform" begin="0s" calcMode="spline" dur="3s" keySplines=".42 0 .58 1; .42 0 .58 1" repeatCount="indefinite" type="rotate" values="-6 75.4 49.4;6 75.4 49.4;-6 75.4 49.4"/></g><g id="umbrella-wind-alt__Wind"><path id="umbrella-wind-alt__Wind Line 1" stroke="#e2e8f0" stroke-dasharray="50" stroke-linecap="round" stroke-miterlimit="10" stroke-width="3" d="M44.351 47.844c2.75-2.91 7.649-.742 7.649 3.133 0 2.498-1.99 4.523-4.444 4.523H16"><animate attributeName="stroke-dashoffset" begin="0s" dur="6s" repeatCount="indefinite" values="0;1000"/></path><path id="umbrella-wind-alt__Wind Line 1_2" stroke="#e2e8f0" stroke-dasharray="50" stroke-linecap="round" stroke-miterlimit="10" stroke-width="3" d="M32.057 69.158c2.796 2.85 7.943.858 7.943-3.134 0-2.498-2.066-4.524-4.615-4.524H16"><animate attributeName="stroke-dashoffset" begin="-5.8s" dur="6s" repeatCount="indefinite" values="0;1000"/></path></g></g><defs><linearGradient id="umbrella-wind-alt__paint0_linear_1843_12131" x1="71.127" x2="90.219" y1="56.985" y2="37.893" gradientUnits="userSpaceOnUse"><stop stop-color="#fff"/><stop offset="1" stop-color="#f1f5f9"/></linearGradient><linearGradient id="umbrella-wind-alt__paint1_linear_1843_12131" x1="71.071" x2="90.163" y1="56.929" y2="37.837" gradientUnits="userSpaceOnUse"><stop stop-color="#ef4444"/><stop offset="1" stop-color="#dc2626"/></linearGradient><clipPath id="umbrella-wind-alt__clip0_1843_12131"><rect width="128" height="128" fill="#fff"/></clipPath><clipPath id="umbrella-wind-alt__clip1_1843_12131"><rect width="128" height="128" fill="#fff" transform="rotate(45 64 64)"/></clipPath></defs></svg>
